<svg xmlns="http://www.w3.org/2000/svg" viewBox="0 0 32.4 47.98">
  <title>Asset 28</title>
  <g id="Layer_2" data-name="Layer 2">
    <g id="Layer_1-2" data-name="Layer 1">
      <path d="M19.71,35c2.14-3,4.16-5.79,6.17-8.6a4.11,4.11,0,0,1,2.51-2,3.3,3.3,0,0,1,3.43,5.05c-1.39,2-2.82,3.95-4.24,5.93q-3.93,5.48-7.87,11a3.27,3.27,0,0,1-5.46.25C11,42.76,7.88,38.86,4.7,35L1,30.4a3.32,3.32,0,0,1,.27-4.91,3.4,3.4,0,0,1,4.93.79c2.18,2.72,4.4,5.4,6.6,8.1l.36.43V3.49A3.32,3.32,0,0,1,15.23.24,3.21,3.21,0,0,1,18.81,1a3.32,3.32,0,0,1,.91,2.43c0,19.41,0,11.09,0,30.51Z" style="fill: #fb00d0"/>
    </g>
  </g>
</svg>
