<svg xmlns="http://www.w3.org/2000/svg" viewBox="0 0 32.4 47.98">
  <title>Asset 27</title>
  <g id="Layer_2" data-name="Layer 2">
    <g id="Layer_1-2" data-name="Layer 1">
      <path d="M12.69,13,6.52,21.56a4.14,4.14,0,0,1-2.51,2A3.16,3.16,0,0,1,.65,22.24,3.14,3.14,0,0,1,.59,18.5c1.38-2,2.81-4,4.23-5.93q3.93-5.49,7.88-11a3.25,3.25,0,0,1,5.45-.25C21.36,5.22,24.52,9.12,27.7,13l3.75,4.58a3.31,3.31,0,0,1-.27,4.9c-1.53,1.25-3.57.9-4.93-.78-2.18-2.72-4.4-5.41-6.6-8.1-.08-.1-.15-.19-.36-.43V44.49a3.32,3.32,0,0,1-2.12,3.25A3.23,3.23,0,0,1,13.59,47a3.35,3.35,0,0,1-.91-2.44c0-19.41,0-11.09,0-30.5Z" style="fill: #fb00d0"/>
    </g>
  </g>
</svg>
