<svg xmlns="http://www.w3.org/2000/svg" viewBox="0 0 200 200">
  <title>Asset 11</title>
  <g id="Layer_2" data-name="Layer 2">
    <g id="Layer_1-2" data-name="Layer 1">
      <g>
        <path d="M200,28.37a4.5,4.5,0,0,0-.87-1.12Q185.93,14.07,172.75.87A4.5,4.5,0,0,0,171.63,0H157.14a2.94,2.94,0,0,0-.33,2V55.23c0,1.54,0,1.58-1.51,1.58H44.49c-1.45,0-1.5-.05-1.5-1.48,0-4.83,0-9.66,0-14.49q0-19.49,0-39A2.64,2.64,0,0,0,42.65,0H40.41a44.12,44.12,0,0,1-4.74.11H20.82a8.71,8.71,0,0,1-2-.11h-.41a8.46,8.46,0,0,1-2,.11h-1c-.89,0-1.77,0-2.66,0A10.53,10.53,0,0,0,9.5.49,15.55,15.55,0,0,0,0,10.2V190a16.08,16.08,0,0,0,10,10H189.8a12.94,12.94,0,0,0,2.15-.88A16.32,16.32,0,0,0,199.4,191a5.06,5.06,0,0,0,.5-2.16q0-8.1,0-16.21c0-2,0-4,0-6,0-1.77,0-3.53,0-5.3,0-2,0-4.08,0-6.11s0-3.81,0-5.72,0-3.53,0-5.3c0-1.43,0-2.87,0-4.3,0-1.84,0-3.68,0-5.51,0-2.24,0-4.48,0-6.72,0-2,0-4,0-5.92,0-1.64,0-3.27,0-4.91,0-2,0-4,0-5.93,0-2.71,0-5.43,0-8.14,0-2.52,0-5,0-7.56,0-2.79,0-5.57,0-8.36,0-2.45,0-4.9,0-7.34,0-2,0-4.09,0-6.13s0-3.82,0-5.72c0-2.11,0-4.22,0-6.33,0-2.45,0-4.9,0-7.35,0-2.85,0-5.7,0-8.56s0-5.69,0-8.53c.07-2.12-.12-4.24.11-6.36ZM170.21,185.94q-35.15,0-70.3,0t-70.41,0c-.92,0-1.15-.22-1.15-1.15q0-48.91,0-97.85c0-.93.23-1.16,1.16-1.16q70.35,0,140.71,0c1,0,1.21.24,1.21,1.22q0,48.88,0,97.75C171.44,185.77,171.16,185.94,170.21,185.94Z" style="fill: #fb00d0"/>
        <path d="M142.86,0c0,.37-.05.75-.05,1.12q0,20.3,0,40.6c0,.88-.14,1.2-1.13,1.19q-13.26-.06-26.52,0c-.66,0-1,0-1-.89,0-13.73,0-27.47,0-41.21a7.25,7.25,0,0,1,.09-.8Z" style="fill: #fb00d0"/>
        <path d="M157.14,170.43c0,1-.2,1.22-1.2,1.22q-55.09,0-110.18,0c-1,0-2.35.44-2.93-.2s-.15-1.86-.16-2.84c0-3.37,0-6.74,0-10.1,0-.9.18-1.18,1.14-1.17q28.05,0,56.11,0t56.1,0c.85,0,1.16.13,1.14,1.08C157.07,162.4,157.08,166.42,157.14,170.43Z" style="fill: #fb00d0"/>
        <path d="M157.13,142.06c0,.83-.24,1-1,1q-28.1,0-56.21,0t-56.1,0c-.94,0-1.17-.25-1.15-1.17.05-4.08,0-8.16,0-12.24,0-.79.22-.94,1-.94q56.27,0,112.51,0c.8,0,1,.2,1,1Q157.07,135.89,157.13,142.06Z" style="fill: #fb00d0"/>
        <path d="M157.13,113.41c0,.76-.13,1-1,1q-56.25,0-112.5,0c-.84,0-1-.26-1-1,0-4.11.05-8.22,0-12.34,0-.85.27-1,1-1h56.2q28.05,0,56.1,0c1,0,1.16.26,1.15,1.18C157.08,105.32,157.09,109.37,157.13,113.41Z" style="fill: #fb00d0"/>
      </g>
    </g>
  </g>
</svg>
