<svg xmlns="http://www.w3.org/2000/svg" viewBox="0 0 228.15 214.41">
  <title>Asset 7</title>
  <g id="Layer_2" data-name="Layer 2">
    <g id="Layer_1-2" data-name="Layer 1">
      <g>
        <path d="M118.58,78.22c-.23-.74-.22-1.52-.42-2.26-.32-1.55-.63-3.11-1.1-4.62-.35-1.08-.63-2.18-1-3.27-.28-.75-.5-1.51-.81-2.23-.23-.55-.45-1.11-.7-1.65-.79-2-1.89-3.86-2.79-5.81-.54-1-1.18-2-1.78-3a28.67,28.67,0,0,1-2-3.19c-1.11-1.19-2-2.54-3.12-3.76a3.65,3.65,0,0,1-.6-.76c-.44-.55-1-1-1.46-1.52-.35-.33-.69-.68-1-1q-.76-.74-1.5-1.5c-.8-.92-1.88-1.54-2.7-2.44a11.6,11.6,0,0,1-1-.81c-1.16-1-2.45-1.79-3.67-2.7-.42-.27-.84-.55-1.25-.84-.62-.42-1.29-.75-1.89-1.19a79.58,79.58,0,0,0-8.43-4.18,12.92,12.92,0,0,1-2.26-.8c-1.64-.6-3.32-1.06-5-1.52a61.88,61.88,0,0,0-6.6-1.25,9.55,9.55,0,0,1-1.85-.23c-1.13-.24-2.31.09-3.43-.3-.89-.1-1.79,0-2.68-.05a19.36,19.36,0,0,0-3.14.09,15.2,15.2,0,0,1-3,.22c-2.05.35-4.14.49-6.17,1a59.19,59.19,0,0,0-10.42,3.28c-.93.43-1.92.74-2.84,1.2l-.78.4c-1.1.49-2.07,1.23-3.19,1.71-1.1.63-2.15,1.33-3.23,2C25.08,38.22,23.5,39.39,22,40.6c-1.2.94-2.27,2-3.46,3-.34.37-.7.72-1.06,1.07A23.36,23.36,0,0,0,15,47.33a7.13,7.13,0,0,1-.81.84,80.65,80.65,0,0,0-6.62,9.18c-.4.72-.73,1.47-1.13,2.19-.63,1.17-1.12,2.4-1.69,3.59a55.12,55.12,0,0,0-2.79,7.65C1.5,72,1.38,73.35,1,74.61a37.66,37.66,0,0,0-.74,4.62A18.43,18.43,0,0,1,0,82.46v8.18A15.63,15.63,0,0,1,.25,92.9a12.12,12.12,0,0,0,.27,1.89c.11.36.17.74.26,1.11.38,1.65.93,3.25,1.46,4.86.37,1,.73,1.92,1.17,2.85.22.42.35.88.59,1.28.39.85.79,1.69,1.2,2.53,1.36,2.69,2.94,5.26,4.49,7.85.5.75.94,1.54,1.47,2.28s.95,1.25,1.34,1.94c.62.94,1.17,1.92,1.88,2.8.44.64.87,1.3,1.33,1.94s.94,1.36,1.46,2,1,1.44,1.53,2.17.88,1.16,1.26,1.78l5.86,8.18c.91,1.31,1.87,2.57,2.73,3.91.25.36.5.73.78,1.07.36.49.69,1,1,1.5.71,1.08,1.44,2.14,2.14,3.22.37.56.76,1.1,1.1,1.68.51.75,1.05,1.47,1.48,2.26,1.67,2.9,3.57,5.66,5.16,8.6.55,1,1.17,2,1.73,3a19.09,19.09,0,0,1,1.19,2.29c.44,1,1.1,1.91,1.57,2.91q1.57,3,2.92,6.12c.24.54.44,1.09.71,1.61s.54,1.31.84,1.95A33.3,33.3,0,0,1,50.63,182c1.09,2.92,2.27,5.82,3.21,8.8.26.71.49,1.43.71,2.15,1,3.29,1.89,6.62,2.73,10a10.7,10.7,0,0,1,.3,1.11c.3,1.06.46,2.15.72,3.23.24.9.31,1.83.53,2.74.1.45,0,1,.64,1.21a1.49,1.49,0,0,0,.64-1.1c.22-.86.46-1.71.71-2.55.27-1,.63-2.07.92-3.11.87-2.59,1.57-5.22,2.5-7.79.4-1,.73-2.1,1.19-3.12.95-2.6,1.92-5.2,3-7.76.49-1.28,1.11-2.51,1.64-3.78.2-.43.41-.85.59-1.29a17.31,17.31,0,0,1,1.18-2.5c.58-1.28,1.1-2.58,1.77-3.82.14-.31.31-.62.47-.93.79-1.61,1.58-3.23,2.51-4.77.21-.46.43-.92.68-1.36s.6-1,.84-1.46a21.22,21.22,0,0,1,1.2-2.26c1.52-2.5,2.91-5.08,4.46-7.56.5-.77.94-1.58,1.44-2.35s.94-1.67,1.5-2.45,1-1.49,1.47-2.26.83-1.32,1.27-2,.92-1.54,1.46-2.27c.87-1.2,1.67-2.45,2.51-3.67.86-1.57,2-2.94,3-4.45.75-1.15,1.52-2.28,2.28-3.41a23.38,23.38,0,0,0,1.39-2.07c.26-.43.53-.85.82-1.26.81-1.22,1.61-2.44,2.43-3.65.27-.43.56-.85.85-1.26.55-.86,1-1.77,1.66-2.58,2-3.13,3.87-6.35,5.68-9.6.24-.53.49-1,.77-1.56.34-.68.66-1.38,1-2a58.18,58.18,0,0,0,3.76-9.09c.2-.62.35-1.25.54-1.86a49.49,49.49,0,0,0,1.45-7.33A64.29,64.29,0,0,0,118.58,78.22ZM60,118.91a31.5,31.5,0,1,1,31.5-31.49A31.49,31.49,0,0,1,60,118.91Z" style="fill: #b62aff"/>
        <path d="M228.15,32.11a31.87,31.87,0,0,0-.93-6.13A27.57,27.57,0,0,0,225.91,22c-.15-.33-.31-.65-.43-1a17.22,17.22,0,0,0-1.32-2.65c-.46-.71-.8-1.5-1.29-2.19q-.39-.54-.75-1.11a23.89,23.89,0,0,0-3-3.72,29,29,0,0,0-4.23-4,23.31,23.31,0,0,0-3.25-2.26c-.84-.49-1.67-1-2.54-1.47-.42-.2-.83-.41-1.25-.63a23.9,23.9,0,0,0-3.54-1.4c-1.1-.4-2.24-.66-3.37-.95-.4-.11-.84-.1-1.24-.25a2.33,2.33,0,0,0-.36-.08,8.92,8.92,0,0,0-1.93-.22,35.56,35.56,0,0,0-4-.13h-1.5a34.1,34.1,0,0,0-5.53.35c-1,.27-2.08.41-3.08.76a33.11,33.11,0,0,0-5.47,2c-1.37.69-2.7,1.46-4,2.26-.74.42-1.36,1-2.1,1.44a8.08,8.08,0,0,0-.79.63c-.8.55-1.45,1.28-2.21,1.87a7.28,7.28,0,0,0-1.7,1.8c-.17.2-.37.39-.56.58a8.38,8.38,0,0,0-1.25,1.47c-.35.41-.64.87-1,1.28-.46.62-.88,1.29-1.32,1.92-.25.4-.51.78-.74,1.19a40.32,40.32,0,0,0-3.55,8.5c-.26.82-.32,1.69-.6,2.5-.09.31-.18.61-.29.91a3.82,3.82,0,0,0-.08.39c0,1.52-.21,3-.28,4.54,0,.56,0,1.12,0,1.68a32.22,32.22,0,0,0,.83,5.08c.23.67.46,1.33.68,2,.4.88.62,1.84,1,2.72a9.14,9.14,0,0,1,1.1,2,35,35,0,0,0,2.44,4.24c.69,1.18,1.47,2.3,2.23,3.44.26.37.5.75.75,1.13.95,1.26,1.88,2.54,2.75,3.85.54.62.93,1.35,1.46,2,.2.24.36.52.56.76a8.92,8.92,0,0,1,.73,1c.18.26.34.53.54.78a20.08,20.08,0,0,1,1.19,1.71c.34.5.67,1,1,1.49s.84,1.18,1.23,1.79c1.67,2.57,3.42,5.09,4.91,7.77.29.56.69,1,.95,1.62.41.82,1,1.55,1.31,2.41.56,1.09,1.12,2.18,1.64,3.29.44.9,1,1.76,1.32,2.69.77,1.78,1.58,3.55,2.2,5.39.35.84.6,1.72.89,2.58.25.7.45,1.4.64,2.11a14.88,14.88,0,0,1,.93,2.83,47.81,47.81,0,0,1,1.25,5,5.22,5.22,0,0,1,.19.94c0,.33.16.64.22,1s.17.89.67.88.47-.53.56-.86c.58-2,1.27-3.91,1.82-5.89a9.75,9.75,0,0,1,.48-1.41c1-2.8,2.07-5.53,3.24-8.24.21-.5.47-1,.69-1.46.67-1.79,1.64-3.42,2.47-5.12a41,41,0,0,1,2.2-4.21c.6-1.26,1.39-2.41,2.08-3.62.47-.78.92-1.57,1.41-2.34.35-.57.66-1.16,1-1.72.67-1,1.36-1.92,2-2.94.41-.66.77-1.36,1.23-2s.68-1,1-1.53c1-1.27,1.72-2.69,2.67-4s1.89-2.71,2.78-4.11a7.63,7.63,0,0,1,.7-1.13c.5-.81,1.06-1.59,1.57-2.4s1-1.5,1.41-2.29a12.44,12.44,0,0,1,.83-1.46c.25-.46.47-.94.76-1.38a35.84,35.84,0,0,0,3.78-9.35c.26-1,.14-2,.41-3v-4a1.93,1.93,0,0,1,0-1.49ZM192.69,54.43A19.34,19.34,0,1,1,212,35.09,19.34,19.34,0,0,1,192.69,54.43Z" style="fill: #b62aff"/>
        <path d="M114.08,214.12l-1.74.06c-6.68,0-13.35.26-20,.23-7.54,0-15.08,0-22.62-.23-.38-.66.37-1.14.28-1.76-.14-1,.54-1.86.76-2.81.6-1.71,1.14-3.43,1.71-5.15.37-1,.69-2,1-3q1.47-5,2.92-10.08c.26-.59.34-1.23.54-1.84.72-2.84,1.51-5.67,2.21-8.52.22-.81.47-1.61.68-2.42a25.72,25.72,0,0,1,1-3.46c.43-.5,1-.45,1.6-.5a7.31,7.31,0,0,1,1.55.11c1.53.25,3.09.23,4.63.35,2.36.2,4.72.3,7.09.36a7.76,7.76,0,0,0,2.45.18c4.07.11,8.14.27,12.21.31a26.48,26.48,0,0,0,5.34.15c4,.05,8,0,12,0a29.38,29.38,0,0,0,5-.15c2.45-.18,4.91,0,7.36-.32,1.7-.23,3.43-.28,5.12-.61a37.56,37.56,0,0,0,7.38-1.75,13.2,13.2,0,0,0,2.83-1.17,18,18,0,0,0,2.69-1.72,13,13,0,0,0,1.51-1.55,6.52,6.52,0,0,0,1.07-2.12c1-2,.54-3.93-.25-5.82a14.4,14.4,0,0,0-3.44-4.74c-.21-.21-.41-.43-.63-.62a79,79,0,0,0-7.33-4.94c-1.19-.9-2.51-1.6-3.75-2.44s-2.35-1.56-3.45-2.45a16,16,0,0,1-1.28-1c-.44-.32-.86-.67-1.31-1a35.19,35.19,0,0,1-2.65-2.53c-.39-.39-.65-.87-1-1.27a7.84,7.84,0,0,1-.78-1,10,10,0,0,0-.82-1.22,6.27,6.27,0,0,1-.57-1.09,21.18,21.18,0,0,1-.91-2.9,8.35,8.35,0,0,1,.22-3.62,18.19,18.19,0,0,1,2.28-4.89,4.65,4.65,0,0,0,1.06-1.28,3,3,0,0,1,.32-.39,21.06,21.06,0,0,1,1.89-1.65l.81-.8a9.65,9.65,0,0,1,1-.79c.41-.34.87-.63,1.27-1s.82-.58,1.25-.85c.85-.51,1.72-1,2.61-1.46a44.49,44.49,0,0,1,7.85-2.81c1-.26,1.92-.42,2.87-.67,1.79-.37,3.6-.55,5.4-.82a35.11,35.11,0,0,0,3.55-.27c3.71,0,7.43,0,11.14,0,2.51.37,5.05.29,7.56.71a11.35,11.35,0,0,0,1.93.27c1.29.17,2.58.33,3.86.6.47.2,1.08.05,1.51.7-1.49.82-3.14,0-4.61.56-1.92.32-3.85,0-5.79.23-2.3.22-4.6.48-6.9.59-2.82.35-5.64.63-8.43,1.19a17,17,0,0,0-2.35.42c-1.05.26-2.12.42-3.16.72-.59.16-1.17.36-1.75.53a10.8,10.8,0,0,0-1.66.56,10.06,10.06,0,0,0-1.58.6c-.31.12-.63.21-.93.35a11.66,11.66,0,0,0-1.32.67,15,15,0,0,0-2.58,1.75,2.56,2.56,0,0,0-.85.94,5.86,5.86,0,0,0-1.38,2.6,3.23,3.23,0,0,0-.06,1.77,3,3,0,0,1,.09.32A4.09,4.09,0,0,0,148,130a10.49,10.49,0,0,0,.82,1.6,19.8,19.8,0,0,0,1.65,2c.72.57,1.41,1.19,2.18,1.72a20.28,20.28,0,0,0,1.75,1.15,6.38,6.38,0,0,0,1.23.74l.29.14c.75.35,1.4.87,2.16,1.19.5.28,1,.52,1.54.75,2.62,1.21,5.23,2.41,7.83,3.67a18.53,18.53,0,0,0,2.56,1.18c1.3.66,2.53,1.45,3.85,2.06a8,8,0,0,0,.88.54,54.25,54.25,0,0,1,7.46,4.91A34.37,34.37,0,0,1,192.23,164c.39,1,.75,1.92,1.17,2.86a8.57,8.57,0,0,1,.39,1.31,19.65,19.65,0,0,1,.51,10,15.36,15.36,0,0,1-.62,2.49,30.45,30.45,0,0,1-2.7,6q-.4.56-.78,1.14c-.47.76-1,1.45-1.56,2.19a17.88,17.88,0,0,1-1.76,2,17.28,17.28,0,0,1-3.4,3.38l-.6.58a8.84,8.84,0,0,1-1.25,1c-.79.71-1.66,1.29-2.48,1.95s-1.77,1.2-2.66,1.8c-.61.41-1.27.75-1.87,1.17-1.21.67-2.38,1.39-3.59,2.05-.31.15-.62.31-.92.48-1,.57-2.16.91-3.19,1.48s-2.32,1-3.49,1.48-2.19.8-3.27,1.25c-1.47.39-2.9.89-4.37,1.29-.68.16-1.37.33-2,.55a51.69,51.69,0,0,1-5.1,1,2.38,2.38,0,0,1-1.58,0c-2.92.51-5.87.81-8.82,1.11l-.6.11c-.53.4-1.18.1-1.75.3a2.43,2.43,0,0,1-.6,0,13.36,13.36,0,0,0-2.45.09,18.49,18.49,0,0,0-3.64.27,17.21,17.21,0,0,0-3.79.23l-.92,0C121,213.74,117.54,213.84,114.08,214.12Z" style="fill: #b62aff"/>
      </g>
    </g>
  </g>
</svg>
