<svg xmlns="http://www.w3.org/2000/svg" viewBox="0 0 227.36 258.05">
  <title>Asset 9</title>
  <g id="Layer_2" data-name="Layer 2">
    <g id="Layer_1-2" data-name="Layer 1">
      <g>
        <path d="M174.45,64.13a27.25,27.25,0,0,0-.67-6,27,27,0,0,0-26.3-20.82c-6.59.08-13.18,0-19.76,0H127c-.42,0-.57-.16-.57-.57a10.54,10.54,0,0,0-.14-2.38,8.17,8.17,0,0,0-8.09-6.55c-2.68,0-5.36,0-8,0a1.58,1.58,0,0,1-1-.13A21.57,21.57,0,0,0,105,8.75,21.72,21.72,0,0,0,87.59,0,21.47,21.47,0,0,0,70.93,7.06c-5.48,5.85-7.32,12.79-5.59,20.72H64.21c-2.68,0-5.36,0-8,0A8.14,8.14,0,0,0,48.33,34a10.28,10.28,0,0,0-.27,2.47c0,.86,0,.86-.92.87H27a26.18,26.18,0,0,0-5.72.56A27,27,0,0,0,0,64.17Q0,139.1,0,214a24.85,24.85,0,0,0,2.56,11.44c4.89,9.59,12.68,14.86,23.5,15.43,2.45.13,4.92,0,7.38,0a1.68,1.68,0,0,0,1.33-.55q9.7-9.72,19.41-19.43c.14-.14.41-.23.25-.56H27.54a10.77,10.77,0,0,1-2.05-.15,5.71,5.71,0,0,1-4.68-4.29,9,9,0,0,1-.23-2.59q0-74.26,0-148.53V63.73a6.08,6.08,0,0,1,6.33-5.89c6.77,0,13.54,0,20.31,0,.81,0,.83,0,.83.84v8.58a9.44,9.44,0,0,0,.23,2.37A8.2,8.2,0,0,0,56.45,76Q87.23,76,118,76a9,9,0,0,0,2.26-.28,8.1,8.1,0,0,0,6.11-7.77c.05-3.07,0-6.15,0-9.23,0-.83,0-.83.82-.85h19.87a10.3,10.3,0,0,1,1.84.14,5.64,5.64,0,0,1,4.58,3.83,8.65,8.65,0,0,1,.4,3q0,27.52,0,55.05V121c.33,0,.42-.16.54-.27q9.75-9.75,19.51-19.49a1.73,1.73,0,0,0,.51-1.35Q174.45,82,174.45,64.13ZM93.54,27A1.62,1.62,0,0,1,92,27.8c-1.6-.06-3.19,0-4.78,0s-3.33,0-5,0a1.33,1.33,0,0,1-1.19-.59,7.73,7.73,0,0,1,7.44-12.35A7.73,7.73,0,0,1,93.54,27Z" style="fill: #09c5d8"/>
        <path d="M162.37,135.38l-71,71,34.31,34.31,71-71Zm-9.1,37.2c-.19.21-.4.42-.6.62l-36.15,36.15a11.37,11.37,0,0,1-1,.88,3.92,3.92,0,0,1-2.73.86,4.21,4.21,0,0,1-3.56-2.66,3.72,3.72,0,0,1,.74-4.23c.24-.26.5-.52.76-.77q17.91-17.93,35.84-35.84a10,10,0,0,1,.94-.9,4.12,4.12,0,0,1,5.71,5.89Zm12.94-13a4.11,4.11,0,0,1-5.84-5.75c1-1.15,2.15-2.26,3.3-3.3a3.9,3.9,0,0,1,4.45-.64,4,4,0,0,1,2.37,3.71,3.72,3.72,0,0,1-1.05,2.77C168.39,157.49,167.33,158.59,166.21,159.61Z" style="fill: #09c5d8"/>
        <path d="M87.28,96.56h42.33a13.68,13.68,0,0,1,4,.4,9.52,9.52,0,0,1,6.86,7.78,10.59,10.59,0,0,1-.88,6.87,9.33,9.33,0,0,1-8,5.44c-.57,0-1.15,0-1.73,0H44.7a13.27,13.27,0,0,1-3.66-.36,9.45,9.45,0,0,1-7-7.55,10.68,10.68,0,0,1,1-7.48,9.27,9.27,0,0,1,7.71-5.07,21.62,21.62,0,0,1,2.28-.07Q66.17,96.54,87.28,96.56Z" style="fill: #09c5d8"/>
        <path d="M87,128.69q21.27,0,42.56,0a11.06,11.06,0,0,1,6.3,1.63,10.42,10.42,0,0,1,3.71,4.16.89.89,0,0,1-.16,1.23q-6.58,6.54-13.13,13.12a1.11,1.11,0,0,1-.95.41,4.87,4.87,0,0,0-.54,0H44.69a13.66,13.66,0,0,1-3.55-.33,9.21,9.21,0,0,1-6.51-5.71,10.84,10.84,0,0,1,.26-9.05,9.22,9.22,0,0,1,7.85-5.38,20.16,20.16,0,0,1,2.06-.07Z" style="fill: #09c5d8"/>
        <path d="M114.3,161c-.38.3-.63.45-.83.65q-9.52,9.53-19,19.05a2.05,2.05,0,0,1-1.61.66H44.62a11.93,11.93,0,0,1-4.16-.56,9.46,9.46,0,0,1-6.38-7.59,10.58,10.58,0,0,1,1.31-7.73,9.25,9.25,0,0,1,7.24-4.57,19.4,19.4,0,0,1,2.16-.09h68.08A2.84,2.84,0,0,1,114.3,161Z" style="fill: #09c5d8"/>
        <path d="M86.76,210.78c-4.2,15.7-8.41,31.4-12.66,47.27l47.26-12.67Zm5.72,35a1.34,1.34,0,0,1-1.51-.42c-1.43-1.49-2.9-2.94-4.37-4.39a1,1,0,0,1-.38-1.12q2.07-7.6,4.11-15.23l17.11,17.11a12.51,12.51,0,0,1-1.79.49C101.26,243.41,96.87,244.58,92.48,245.78Z" style="fill: #09c5d8"/>
        <path d="M180,117.5c0-.25.25-.36.39-.51l10.21-10.22a6.74,6.74,0,0,1,3.45-1.92,6.47,6.47,0,0,1,5.83,1.62c.16.14.31.3.46.45q12.4,12.4,24.81,24.8a6.76,6.76,0,0,1,2.18,4.8,6.61,6.61,0,0,1-2.09,4.94q-4.35,4.33-8.68,8.68c-.54.53-1.09,1.06-1.61,1.61-.28.3-.51.37-.79,0a3.41,3.41,0,0,0-.38-.38l-33.16-33.17C180.43,118,180.14,117.82,180,117.5Z" style="fill: #09c5d8"/>
        <path d="M168,129.6l7.56-7.56L210,156.48,202.35,164Z" style="fill: #09c5d8"/>
        <path d="M90.32,224.61l0,0s0,0,0,0Z" style="fill: #09c5d8"/>
      </g>
    </g>
  </g>
</svg>
