<svg xmlns="http://www.w3.org/2000/svg" viewBox="0 0 222.03 220.87">
  <title>Asset 6</title>
  <g id="Layer_2" data-name="Layer 2">
    <g id="Layer_1-2" data-name="Layer 1">
      <g>
        <path d="M108.34,96.65a26.1,26.1,0,0,0-8.94,1.81A19.69,19.69,0,0,0,92.35,103a17.71,17.71,0,0,0-5,10.26,23.83,23.83,0,0,0-.29,3.37c0,.93.42,1.79.34,2.72.07.25,0,.52.09.77l0,1.51c.08.25,0,.52.09.77l0,1.51c.08.26,0,.53.1.78l.05,1.64c.07.26,0,.53.09.77l.05,1.51c.08.26,0,.53.09.78a18.45,18.45,0,0,1,0,1.95c-2.61-1-5.17-2-7.77-2.88s-4.83-2-7.45-2.41c-.25,0-.51,0-.77,0a6.3,6.3,0,0,0-1.84,0,12.21,12.21,0,0,0-7.72,3A13.14,13.14,0,0,0,58,137a8.44,8.44,0,0,0,0,1.13,7.77,7.77,0,0,0,0,2.1,12.15,12.15,0,0,0,4,8.62,12,12,0,0,0,7.8,3.47c.24.12.51,0,.76.09s.51,0,.77,0H101a.87.87,0,0,1,.07.55q0,8.07,0,16.14a.9.9,0,0,1-.07.56q-15.21,0-30.42,0a30.09,30.09,0,0,1-11-2.22,31.08,31.08,0,0,1-7-4,27.62,27.62,0,0,1-4.25-4,30.6,30.6,0,0,1-7.09-14.14,30.43,30.43,0,0,1,1.57-17.49,30.25,30.25,0,0,1,4.16-7.29,31.59,31.59,0,0,1,4.31-4.5,29.72,29.72,0,0,1,6.33-4.22,28.9,28.9,0,0,1,9.74-2.88c1.2-.13,2.4-.26,3.61-.27.27,0,.41,0,.49-.38a45.25,45.25,0,0,1,3.26-9.75,28.77,28.77,0,0,1,6.5-8.85,35.61,35.61,0,0,1,6.17-4.53,43,43,0,0,1,15.6-5.3c1.26-.19,2.53-.32,3.79-.46.26-.07.53,0,.79-.09l1.92,0a15.14,15.14,0,0,1,2.13,0A29.92,29.92,0,0,1,117,80.48a.54.54,0,0,0,.71-.3A54.44,54.44,0,0,1,121.25,75c.81-1,1.63-2.07,2.53-3,.61-.65,1.15-1.37,1.8-2a48.12,48.12,0,0,1,9.47-7.32,37.65,37.65,0,0,1,14.39-4.95c1-.12,1.93-.21,2.89-.32.26-.08.53,0,.79-.09h3.41c.3.13.62,0,.93.1a43.94,43.94,0,0,1,26.25,10.81,45.94,45.94,0,0,1,14.52,24,36.31,36.31,0,0,1,1,6.12.9.9,0,0,0,.59.79,43,43,0,0,1,7.56,4.63,38.62,38.62,0,0,1,10.5,12,33.73,33.73,0,0,1,3.72,10.76c.16,1,.23,2,.34,3,.08.26,0,.54.1.79v3c-.13.3,0,.63-.1.93a37.66,37.66,0,0,1-9.93,23.1,37.55,37.55,0,0,1-12,8.76,35.85,35.85,0,0,1-9.51,2.95c-1,.16-2.09.28-3.14.44-.24.09-.51,0-.75.09l-22.91,0a1,1,0,0,1-.07-.56V153a1,1,0,0,1,.07-.55H184c.24,0,.48,0,.71,0s.72,0,1.06-.09a17.18,17.18,0,0,0,5.75-1.21,19.91,19.91,0,0,0,5.3-2.93,20.33,20.33,0,0,0,7.45-11.91,21.31,21.31,0,0,0,.3-6.48,19.41,19.41,0,0,0-1.34-5.56,20.68,20.68,0,0,0-7.55-9.27,23,23,0,0,0-8.38-3.46c-1.43-.34-2.84-.72-4.27-1.06-.32-.07-.45-.17-.45-.53q0-3.21,0-6.42c0-.45.33-.78.3-1.26a32.61,32.61,0,0,0-1.24-7.59,28.61,28.61,0,0,0-2-4.91,28.1,28.1,0,0,0-4.28-6,26.55,26.55,0,0,0-5.14-4.39,27.46,27.46,0,0,0-8-3.61,33.09,33.09,0,0,0-4.15-.82,29,29,0,0,0-6.32,0,25.94,25.94,0,0,0-9.55,2.8A27.57,27.57,0,0,0,129.54,91c-1.12,2.48-1.92,5.09-2.88,7.63-.22.59-.48,1.17-.66,1.76-.11.37-.19.4-.57.26-2.71-1-5.43-2-8.15-3a19.5,19.5,0,0,0-8.15-1.15C108.87,96.63,108.6,96.53,108.34,96.65Z" style="fill: #09c5d8"/>
        <path d="M5.88,79.82A5.68,5.68,0,0,1,3,79.38a5.11,5.11,0,0,1-3-4.11A5.4,5.4,0,0,1,0,74a5.18,5.18,0,0,1,5.52-4.54q11.6,0,23.17,0a7.57,7.57,0,0,1,3.21.4c.55.25.57-.06.61-.45a49.61,49.61,0,0,1,1-5.81,34.46,34.46,0,0,1,2.14-6.46c-2.6-.42-4.53-2.13-6.7-3.32-5.51-3-11-6.18-16.43-9.29a4.92,4.92,0,0,1-2.68-4.88,5,5,0,0,1,3.56-4.6,5.09,5.09,0,0,1,4.71.52c6.5,3.88,13.05,7.66,19.62,11.42a7.63,7.63,0,0,1,2.81,2.23,46.14,46.14,0,0,1,8.92-9.44c-1.49-.95-1.95-2.57-2.76-3.94-3.58-6.1-7.12-12.22-10.67-18.34-1.91-3.29-.56-6.73,3.07-8a4.66,4.66,0,0,1,4.45.83,7.4,7.4,0,0,1,2.09,2.77c3.58,6.27,7.12,12.55,10.7,18.81a6.74,6.74,0,0,1,1.19,3.14c0,.52.34.22.54.13a47.63,47.63,0,0,1,7.08-2.51,33.24,33.24,0,0,1,5-.94c.21,0,.41-.08.66-.13A6.64,6.64,0,0,1,70,28q0-11.11,0-22.24A5.33,5.33,0,0,1,74,.19,4.81,4.81,0,0,1,78.51,1.4,5.67,5.67,0,0,1,80.23,5a3.4,3.4,0,0,1,0,.78q0,11.07,0,22.15a1.82,1.82,0,0,0,0,.77,12.81,12.81,0,0,1-.69,3.06c-.11.25.14.3.33.32a42.84,42.84,0,0,1,11.36,2.84c.41.16.87.62,1.2.4s.24-.79.37-1.21a19.49,19.49,0,0,1,1.81-3.59c.87-1.64,1.83-3.25,2.75-4.86s1.84-3.19,2.74-4.78,1.76-3.19,2.68-4.75a50.38,50.38,0,0,1,2.93-5,5.36,5.36,0,0,1,3.14-1.72A5.1,5.1,0,0,1,115.16,14a3.65,3.65,0,0,1,0,1,9.45,9.45,0,0,1-1.67,3.76q-4.5,7.77-9,15.52c-.83,1.43-1.66,2.87-2.52,4.28a3.76,3.76,0,0,1-.8.89c-.34.3-.31.44.06.72a40.39,40.39,0,0,1,8.37,8.4c.16.22.33.5.61.13,1-1.27,2.48-1.69,3.76-2.48s2.57-1.55,3.87-2.31l5-2.84,3.8-2.21c1.35-.79,2.72-1.55,4.06-2.36a12.66,12.66,0,0,1,3.63-1.74c.41-.1.83-.18,1.24-.27a4.1,4.1,0,0,1,1,0,5.47,5.47,0,0,1,4.41,4.2,5.08,5.08,0,0,1-2.79,5.7c-2.76,1.38-5.38,3-8.07,4.51-3.37,1.89-6.72,3.81-10.07,5.72-1.15.66-2.28,1.37-3.45,2a4.82,4.82,0,0,1-5.66-.94c-.46-.5-.79-.71-1.52-.28-3.63,2.12-7.32,4.15-11,6.24-.43.24-.62.25-.9-.21a24.92,24.92,0,0,0-4.33-5.47,26.9,26.9,0,0,0-5-3.74,25.39,25.39,0,0,0-7.7-2.91A27,27,0,0,0,71.37,49a25,25,0,0,0-8.28,2.62A25.53,25.53,0,0,0,52.6,61.7,24.61,24.61,0,0,0,49.44,71a25.23,25.23,0,0,0,1.65,13.27,24.92,24.92,0,0,0,2.41,4.5c.25.37.21.53-.17.79-3.4,2.26-6.77,4.54-10.15,6.82l-.24.14A3.64,3.64,0,0,0,41,99a4.92,4.92,0,0,1-3,3.12c-1.62.82-3.17,1.79-4.75,2.7l-11.11,6.44-3.87,2.27a5.48,5.48,0,0,1-4.15.82,5.06,5.06,0,0,1-3.72-3.06,5.34,5.34,0,0,1,2.37-6.73c2.6-1.43,5.14-3,7.72-4.44C22.5,99,24.45,98,26.37,96.87s3.77-2.25,5.7-3.29c1-.55,2-1.33,3.23-1.35.25,0,.36-.13.22-.43a43.43,43.43,0,0,1-3-10.18A14.2,14.2,0,0,0,32.07,79c-.81,1.06-1.94.83-3,.83a1.34,1.34,0,0,0-.63,0H6.51A1.34,1.34,0,0,0,5.88,79.82Z" style="fill: #09c5d8"/>
        <path d="M117.58,220.23c.74-3.5,1.52-7,2.2-10.47.58-3,1.22-5.93,1.81-8.9.39-2,.82-4,1.26-6,.66-3,1.2-6.08,1.85-9.11.55-2.53,1.11-5.06,1.59-7.6.11-.58-.16-.4-.39-.41H110.47q2.67-7.17,5.34-14.29c1.6-4.31,3.23-8.61,4.83-12.92,1.42-3.83,2.82-7.67,4.23-11.5s2.87-7.7,4.29-11.56a.63.63,0,0,1,.72-.48c7.43,0,14.87,0,22.44,0-5.86,11.53-11.68,23-17.52,34.51h17.63C152.35,162.14,118,220,117.58,220.23Z" style="fill: #09c5d8"/>
        <path d="M195.94,188.11q-.1,2.77,0,5.55c-.15.54,0,1.1-.1,1.64a37.37,37.37,0,0,1-.88,7.14c-1.31,5.07-4.71,8-9.59,9.39a10.68,10.68,0,0,1-8.1-.86,12.19,12.19,0,0,1-4.55-17.44,15.18,15.18,0,0,1,4.54-4.2,65.82,65.82,0,0,1,8.14-4.4c2.4-1.17,4.86-2.22,7.31-3.29.9-.39,1.76-.85,2.64-1.29.32-.17.47-.15.47.28,0,1.05,0,2.09,0,3.13.08,1.2,0,2.39,0,3.59A2,2,0,0,0,195.94,188.11Z" style="fill: #09c5d8"/>
        <path d="M83.51,204.43a29.45,29.45,0,0,1-1.05,7.3c-1.64,5.1-5.29,7.93-10.43,8.94a10.68,10.68,0,0,1-7.47-1.27,12.2,12.2,0,0,1-4.91-16A10.28,10.28,0,0,1,62,200.25a34.37,34.37,0,0,1,6.51-4.38c2.28-1.29,4.67-2.34,7-3.44,2.6-1.19,5.21-2.34,7.85-3.52l.07.7c.07,1.6,0,3.2,0,4.79a2.63,2.63,0,0,0,.06.84c0,1.44,0,2.87,0,4.31,0,1.22,0,2.44,0,3.67C83.46,203.61,83.6,204,83.51,204.43Z" style="fill: #09c5d8"/>
      </g>
    </g>
  </g>
</svg>
