<svg xmlns="http://www.w3.org/2000/svg" viewBox="0 0 126 216.97">
  <title>Asset 10</title>
  <g id="Layer_2" data-name="Layer 2">
    <g id="Layer_1-2" data-name="Layer 1">
      <g>
        <path d="M101.75,200c-6.63,0-13.27.12-19.9.12-19.65,0-39.29.12-58.94-.18-1.32,0-2.65-.1-4-.15l-1.68-.06c-.46-.2-1,0-1.42-.16A14.5,14.5,0,0,1,9.37,198a21.46,21.46,0,0,1-5-4.32,27.32,27.32,0,0,1-4-6.14,3,3,0,0,1-.09-1.19V160.82a3.41,3.41,0,0,0-.1-1.31,6.39,6.39,0,0,0,.09-.75q0-17.83-.1-35.66c0-.15,0-.3,0-.44a2.75,2.75,0,0,1-.07-1V78a2.75,2.75,0,0,1,.07-1l.05-5.41c.26-1.07,0-2.16.17-3.22l.06-1.91c.22-.6,0-1.25.16-1.86a30.77,30.77,0,0,1,.91-5.78,6.61,6.61,0,0,1,1.33-2.63c2.12-2.19,4.09-4.57,6.86-6.05a33.24,33.24,0,0,1,5.51-1.91c.33.43,0,1,.25,1.44l0,4.53c.22,1.36-.09,2.74.17,4.11-.12,1.51,0,3,.05,4.52.23,1.66-.1,3.34.17,5l.06,3.87c.2.77-.08,1.57.16,2.33a5.08,5.08,0,0,0,.06,1.65c.17.47,0,1,.16,1.45,0,3.35,1.37,6.28,2.92,9.12,5.68,10.4,14.85,15.49,26.26,17.12,1.86.27,3.73.49,5.6.61.83.06.92.38.92,1.08a34.14,34.14,0,0,0,.41,7.82c.92,4,2.78,7.32,6.84,8.86,6.4,2.43,13-1.57,14.42-8.61A38.45,38.45,0,0,0,74,105c0-.87.23-1.08,1.09-1.09a38.81,38.81,0,0,0,25.5-9.55A27.13,27.13,0,0,0,107.75,84a25.57,25.57,0,0,0,1.86-5.6,10.29,10.29,0,0,0,.35-2.76c.22-.61,0-1.27.16-1.88a15.52,15.52,0,0,0,0-3c.27-1.37,0-2.75.18-4.12,0-5.78.06-11.56,0-17.34,0-1,.23-1.09,1.16-.84a21.82,21.82,0,0,1,11.65,7.9,11.81,11.81,0,0,1,2,5.79c.12.75.18,1.52.27,2.28.17.47,0,1,.16,1.45l.06,2.32c.21,1-.09,2,.17,3,0,2,0,4,0,6.07a2.75,2.75,0,0,1,.07,1v43.86a2.71,2.71,0,0,1-.07,1l-.06,14.57q0,10.61-.08,21.2c0,.36.06.72.09,1.08a3.43,3.43,0,0,0-.1,1.31v25.08a2.81,2.81,0,0,1-.09,1.19,61.47,61.47,0,0,1-3.39,5.18c-2.24,2.6-4.49,5.17-8,6.14a36.27,36.27,0,0,1-4.13.68c-.4.16-.83,0-1.23.17l-1.87.05c-.84.21-1.72-.08-2.56.17Z" style="fill: #b62aff"/>
        <path d="M25.38,0h75.25a53.07,53.07,0,0,1,.11,6.05c0,.67-.55.46-.91.47-3.28,0-6.56,0-9.83,0a6.45,6.45,0,0,0-2.19.11h0a1.82,1.82,0,0,0-.12,1.08q0,19.58,0,39.15A1.9,1.9,0,0,0,87.8,48a12.45,12.45,0,0,0,2.86.09c4.5,0,9,0,13.5,0,.88,0,1.18.15,1.15,1.12-.08,2.46,0,4.93,0,7.39-.23,2,0,4-.1,6a12.06,12.06,0,0,1-.07,2.08l0,7.18c-.26,1.14,0,2.3-.18,3.44l0,1.46c-.18.38,0,.81-.16,1.2-2,10.27-12.17,18.58-22,20-6.59.93-13.23.8-19.86.84-5.38,0-10.76,0-16.13-.43a28.46,28.46,0,0,1-21-11,24,24,0,0,1-4.19-8c-.14-.48.06-.95-.17-1.39s0-.83-.16-1.21l-.06-1.67c-.21-1.06.1-2.16-.17-3.22.13-2.47,0-4.94-.05-7.41-.16-2.26,0-4.52-.07-6.79a3.57,3.57,0,0,0-.1-1.3c0-2.43,0-4.86,0-7.28,0-.87.25-1,1-1,5.08,0,10.17,0,15.26,0,.4,0,.8-.06,1.2-.09a1.63,1.63,0,0,0,.11-1q0-19.7,0-39.38a1.61,1.61,0,0,0-.11-1h0A2.2,2.2,0,0,0,37,6.53c-3.57,0-7.15,0-10.72,0-.83,0-1.1-.21-1-1C25.36,3.67,25.1,1.83,25.38,0Z" style="fill: #b62aff"/>
        <path d="M63.07,103.92c1.63,0,3.25,0,4.87,0,.65,0,.92.12.9.84-.06,2.32,0,4.65-.1,7a5.75,5.75,0,0,1-11.49,0c-.08-2.32,0-4.65-.09-7,0-.64.19-.83.82-.82C59.68,103.94,61.38,103.92,63.07,103.92Z" style="fill: #b62aff"/>
        <path d="M30.19,205.27h7.3c.38,0,.82-.14.8.55a14.45,14.45,0,0,1-1.2,6.45,8,8,0,0,1-10.41,4,7.2,7.2,0,0,1-4.4-5.79,28.62,28.62,0,0,1-.23-4.63c0-.71.39-.64.85-.63Z" style="fill: #b62aff"/>
        <path d="M95.89,205.27c2.39,0,4.79,0,7.18,0,.65,0,.91.12.89.84a26.83,26.83,0,0,1-.29,4.74,7.12,7.12,0,0,1-5.79,5.93,7.59,7.59,0,0,1-8.07-3.07c-1.83-2.33-2.11-5.1-2.09-7.94,0-.63.43-.48.76-.48C91,205.26,93.42,205.27,95.89,205.27Z" style="fill: #b62aff"/>
      </g>
    </g>
  </g>
</svg>
