<svg xmlns="http://www.w3.org/2000/svg" viewBox="0 0 186.24 174.5">
  <title>Asset 5</title>
  <g id="Layer_2" data-name="Layer 2">
    <g id="Layer_1-2" data-name="Layer 1">
      <g>
        <path d="M186.24,37v.38c-1,5.33-2.68,10.47-4.06,15.69-2.1,7.93-4.28,15.84-6.43,23.75l-8.31,30.61q-3.45,12.69-6.88,25.39-3.8,13.93-7.56,27.87c-1.14,4.18-2.29,8.36-3.4,12.55a3.7,3.7,0,0,1-.32,1c-.27.31-.6.25-1,.21a51.1,51.1,0,0,1-6.46-1.57c-7-1.81-14-3.66-21-5.5q-19.6-5.18-39.23-10.32c-6.64-1.76-13.29-3.48-19.94-5.23q-19.65-5.19-39.32-10.34L13,139c-1.43-.37-1.59-.6-1.21-2,2.51-9.12,5-18.27,7.44-27.41q3.56-13.06,7.08-26.13,4.06-14.94,8.11-29.89l6.51-24q3.69-13.67,7.41-27.32c.38-1.41.54-1.5,1.93-1.13C61.35,4,72.46,7,83.58,9.9l19,5q20.16,5.28,40.33,10.6l24.36,6.38,18.09,4.76A1.83,1.83,0,0,1,186.24,37Z" style="fill: #fb00d0"/>
        <path d="M0,35.89c2.25-.34,4.42-1,6.62-1.61,9.66-2.47,19.32-5,29-7.48a1.29,1.29,0,0,1,.29,0c.21.24,0,.46-.06.67-1.37,4.16-2.77,8.32-4.13,12.48a1.32,1.32,0,0,1-1,.95c-4.92,1.37-9.83,2.8-14.75,4.17-.69.2-.77.44-.58,1.11,2.59,9.15,5.13,18.3,7.7,27.45A2.4,2.4,0,0,1,23.12,75q-3.32,11-6.61,22a4.59,4.59,0,0,1-.24.5c-.77-2.87-1.49-5.58-2.2-8.3q-6.87-26-13.75-52c-.06-.25,0-.59-.32-.75Z" style="fill: #fb00d0"/>
        <path d="M147.36,130.16l-7.83-2.1L68,108.88q-16-4.3-32-8.56c-.86-.23-1-.51-.8-1.38Q46,58,56.79,17.06c.2-.75.44-.82,1.15-.63Q90.16,25,122.38,33.54q24,6.35,47.9,12.67c.64.17.81.36.61,1.08Q159.43,88.39,148,129.5C147.94,129.79,148,130.36,147.36,130.16Z" style="fill: #fefefe"/>
        <path d="M77.65,161.79l-6.75,2c-10.84,3.1-21.68,6.18-32.51,9.31-.87.25-1.21.19-1.48-.77-2.11-7.54-4.28-15.06-6.44-22.59l-.19-.79L77.65,161.6Z" style="fill: #fb00d0"/>
        <path d="M143,19.63c-4.47-1.12-8.91-2.23-13.36-3.32-.7-.17-.29-.73-.47-1.09-.14-.11-.29,0-.41.06-1.29,1-2.62.75-4.08.31-7.06-2.08-14.14-4.07-21.2-6.1-.27-.07-.54-.17-.93-.29l27.39-7.32c2.26-.6,4.52-1.18,6.78-1.81.43-.12.67-.15.82.38q2.76,9.5,5.54,19S143.06,19.5,143,19.63Z" style="fill: #fb00d0"/>
        <path d="M53.56,89.54,69.84,70.92c2.35,4.3,4.65,8.52,7,12.8L96.62,65.11c3.49,5.83,7,11.61,10.47,17.46l26.77-23.3c2.34,17.92,4.66,35.67,7,53.55Z" style="fill: #fb00d0"/>
        <path d="M77.24,58.38c-5.1-.06-8.55-3.4-8.81-8.59-.21-3.95,1.15-7.13,4.77-9.07a7.64,7.64,0,0,1,5.07-.67,10.68,10.68,0,0,1,9.24,9.74,5.48,5.48,0,0,1-.91,3.77A10.73,10.73,0,0,1,77.24,58.38Z" style="fill: #fb00d0"/>
      </g>
    </g>
  </g>
</svg>
