<svg xmlns="http://www.w3.org/2000/svg" viewBox="0 0 902.43 812.73">
  <title>Asset 2</title>
  <g id="Layer_2" data-name="Layer 2">
    <g id="Layer_1-2" data-name="Layer 1">
      <g>
        <rect x="423.57" y="28.67" width="478.86" height="619.71" rx="39.79" style="fill: #f2f2f2"/>
        <rect x="400.62" y="0.5" width="478.86" height="619.71" rx="39.79" style="fill: none;stroke: #3f3d56;stroke-miterlimit: 10"/>
        <rect x="425.13" y="64.63" width="425.66" height="491.44" style="fill: none;stroke: #3f3d56;stroke-miterlimit: 10"/>
        <circle cx="640.05" cy="32.32" r="10.43" style="fill: none;stroke: #3f3d56;stroke-miterlimit: 10"/>
        <circle cx="640.05" cy="587.86" r="22.95" style="fill: none;stroke: #3f3d56;stroke-miterlimit: 10"/>
        <path d="M627,118.46a69.91,69.91,0,0,0-69.91,69.91h0c0,38.61,73.24,181,73.24,181s66.58-142.41,66.58-181A69.91,69.91,0,0,0,627,118.46ZM627,235a36.62,36.62,0,1,1,36.62-36.62A36.62,36.62,0,0,1,627,235Z" style="fill: #09c5d8"/>
        <ellipse cx="627.01" cy="417.81" rx="69.9" ry="22.95" style="fill: #09c5d8"/>
        <path d="M377.54,100.09a24,24,0,0,0-20.67,14.45c-5.16,12.49,1.49,27.16,11.48,36.27s22.82,14.32,34.48,21.16c15.66,9.2,29.73,22,37.56,38.34s8.67,36.67-.54,52.32c-8.55,14.52-24.09,23.22-38.92,31.23" style="fill: none;stroke: #3f3d56;stroke-miterlimit: 10"/>
        <ellipse cx="390.71" cy="101.18" rx="18.26" ry="8.87" style="fill: #57b894"/>
        <ellipse cx="405.31" cy="159.6" rx="18.26" ry="8.87" style="fill: #57b894"/>
        <ellipse cx="371.93" cy="168.99" rx="18.26" ry="8.87" style="fill: #57b894"/>
        <ellipse cx="424.09" cy="218.02" rx="18.26" ry="8.87" style="fill: #57b894"/>
        <ellipse cx="460.61" cy="218.02" rx="18.26" ry="8.87" style="fill: #57b894"/>
        <line x1="49.55" y1="812.23" x2="423.57" y2="812.23" style="fill: none;stroke: #3f3d56;stroke-miterlimit: 10"/>
        <path d="M35.83,631.5A22.31,22.31,0,0,0,16.58,645c-4.81,11.63,1.39,25.3,10.69,33.78s21.25,13.33,32.11,19.71c14.58,8.56,27.68,20.44,35,35.69s8.07,34.15-.51,48.72c-8,13.53-22.43,21.62-36.24,29.09" style="fill: none;stroke: #3f3d56;stroke-miterlimit: 10"/>
        <ellipse cx="48.09" cy="632.51" rx="17" ry="8.26" style="fill: #57b894"/>
        <ellipse cx="61.69" cy="686.91" rx="17" ry="8.26" style="fill: #57b894"/>
        <ellipse cx="30.6" cy="695.66" rx="17" ry="8.26" style="fill: #57b894"/>
        <ellipse cx="79.18" cy="741.32" rx="17" ry="8.26" style="fill: #57b894"/>
        <ellipse cx="113.18" cy="741.32" rx="17" ry="8.26" style="fill: #57b894"/>
        <path d="M77.05,664.86a18.22,18.22,0,0,1,15.72,11c3.93,9.5-1.13,20.66-8.73,27.58s-17.35,10.89-26.22,16.1c-11.9,7-22.61,16.69-28.56,29.15s-6.6,27.89.41,39.79c6.5,11,18.32,17.65,29.59,23.75" style="fill: none;stroke: #3f3d56;stroke-miterlimit: 10"/>
        <ellipse cx="67.04" cy="665.69" rx="13.88" ry="6.74" style="fill: #57b894"/>
        <ellipse cx="55.93" cy="710.12" rx="13.88" ry="6.74" style="fill: #57b894"/>
        <ellipse cx="81.32" cy="717.26" rx="13.88" ry="6.74" style="fill: #57b894"/>
        <ellipse cx="41.65" cy="754.55" rx="13.88" ry="6.74" style="fill: #57b894"/>
        <ellipse cx="13.88" cy="754.55" rx="13.88" ry="6.74" style="fill: #57b894"/>
        <path d="M135.46,769.4s9.72,4.86,16.52,5.83,10.63-5.91,9.2-8.3,4.4-.45,8.29,8.3c0,0,16.51,19.43,26.23,20.4s9.79,14.12,4.85,14.57c-5.34.49-14.57,3.89-26.23,0s-22.34-14.57-27.2-14.57-21.37-7.77-16.51-11.66S135.46,769.4,135.46,769.4Z" style="fill: #3f3d56"/>
        <path d="M231.21,791.35a54.27,54.27,0,0,0,14.83-.91c6.67-1.62,7.67-9.43,5.46-11.12s3.92-2.05,10.78,4.63c0,0,22.54,11.91,31.92,9.2s14.34,9.48,9.92,11.73a56.11,56.11,0,0,1-24.33,6.87c-12.27.72-26.18-2.37-30.69-.57s-22.73.72-19.66-4.69S231.21,791.35,231.21,791.35Z" style="fill: #3f3d56"/>
        <circle cx="214.7" cy="290.06" r="37.89" style="fill: #ffc1c7"/>
        <path d="M185.07,305.12s5.83,40.8-7.77,46.63,69,3.88,69,3.88-11.66-36.91-8.74-46.63S185.07,305.12,185.07,305.12Z" style="fill: #ffc1c7"/>
        <path d="M171.47,537.3s-2.92,73.84-5.83,81.61-5.83,60.23-5.83,60.23l-25.26,95.21,23.32,7.77s32.06-56.35,35.94-63.15,35-115.61,35-115.61-2.92,67-2.92,89.38,5.83,104,5.83,104l18.46-1.94,24.29-103s35-138.92,11.65-154.47S171.47,537.3,171.47,537.3Z" style="fill: #2f2e41"/>
        <path d="M313.31,560.62s1,56.35-10.69,47.6,0-52.46,0-52.46Z" style="fill: #ffc1c7"/>
        <path d="M152,541.19s1,56.35-10.69,47.6,0-52.46,0-52.46Z" style="fill: #ffc1c7"/>
        <path d="M294.85,377s-19.43-22.35-36-19.43S152,359.52,152,359.52s-30.12,37.89-22.35,45.66,33,145.72,33,145.72,67-8.74,90.35-8.74,33-3.89,33-3.89S255,476.1,269.59,447.93s35.94-58.29,35.94-58.29Z" style="fill: #09c5d8"/>
        <path d="M289,383.81l16.51,5.83s9.72,34,9.72,61.2,1,40.8,4.86,50.52,16.51,55.37,9.71,65.09A64.69,64.69,0,0,1,316.22,581l-22.34-1.94s-1-32.06-6.8-35-13.61-21.37-13.61-21.37S255,463.47,266.67,444,289,383.81,289,383.81Z" style="fill: #09c5d8"/>
        <path d="M226.84,419.75S236.56,377,218.1,379s-43.72,2.91-50.52,2.91-45.66-4.85-51.49,20.41S102.49,458.61,119,478c0,0,5.83,85.49,28.17,91.32s81.61,12.63,103-15.54,12.63-59.26,12.63-59.26h-9.72Z" style="fill: #3f3d56"/>
        <polygon points="258.9 496.5 266.67 444.04 262.79 498.44 258.9 496.5" style="fill: #3f3d56"/>
        <path d="M128.72,484.84s16.52,7.77,50.52,2.92v14.57l-50.52-3.89Z" style="opacity: 0.10000000149011612;isolation: isolate"/>
        <polygon points="217.61 378.46 242.87 364.86 221.5 383.32 217.61 378.46" style="fill: #3f3d56"/>
        <path d="M271.53,364.38s19.43,6.8,19.43,0-17.49-12.63-28.17-16.52-61.21-9.71-69-12.63-44.69-7.77-47.6,3.89S142.32,375.06,156.9,378s52.46-4.86,71.89-2.92S271.53,364.38,271.53,364.38Z" style="fill: #6c63ff"/>
        <path d="M271.53,364.38s19.43,6.8,19.43,0-17.49-12.63-28.17-16.52-61.21-9.71-69-12.63-44.69-7.77-47.6,3.89S142.32,375.06,156.9,378s52.46-4.86,71.89-2.92S271.53,364.38,271.53,364.38Z" style="fill: #09c5d8"/>
        <polygon points="136.01 386.24 142.61 372.37 143.78 389.15 136.01 386.24" style="fill: #3f3d56"/>
        <ellipse cx="208.13" cy="287.96" rx="35.47" ry="41.21" style="fill: #2f2e41"/>
        <ellipse cx="214.39" cy="266.05" rx="35.47" ry="22.43" style="fill: #2f2e41"/>
        <ellipse cx="242.04" cy="299.95" rx="3.65" ry="6.26" style="fill: #ffc1c7"/>
        <path d="M237,260.4c3.73-2,6.92-5.74,9.3-10.78a11.16,11.16,0,0,1,.19,3.41,12.84,12.84,0,0,0,4.44-1.34l-.33,3.64a37.72,37.72,0,0,0,7.33-5.87,28.84,28.84,0,0,1-2.57,15.5c-1.93,3.82-4.56,6.31-7.17,8.76" style="fill: #2f2e41"/>
      </g>
    </g>
  </g>
</svg>
