<svg xmlns="http://www.w3.org/2000/svg" viewBox="0 0 47.97 62.34">
  <title>Asset 26</title>
  <g id="Layer_2" data-name="Layer 2">
    <g id="Layer_1-2" data-name="Layer 1">
      <g>
        <path d="M30.34,52.49a1.79,1.79,0,0,1-1.07,1.76,12.56,12.56,0,0,1-2.48.64,15.52,15.52,0,0,1-2.72.22A16.67,16.67,0,0,1,8.13,43.54a16.24,16.24,0,0,1-.61-6,1.71,1.71,0,0,1,1.9-1.36A1.78,1.78,0,0,1,11,37.92c.07.75.1,1.5.19,2.25a12.23,12.23,0,0,0,3.71,7.56,12.68,12.68,0,0,0,7.21,3.58,14,14,0,0,0,5.54-.38,2.52,2.52,0,0,1,1.56,0A1.66,1.66,0,0,1,30.34,52.49Z" style="fill: #fb00d0"/>
        <path d="M46.84,31.35a25.66,25.66,0,0,0-5-8.76c-2.66-3.15-5.51-6.13-8.36-9.11a48.69,48.69,0,0,1-3.79-4.2,30.31,30.31,0,0,1-4.05-7.75A4.34,4.34,0,0,0,25.11.45a.9.9,0,0,0-.8-.43c-.31,0-.61,0-.92,0a1.25,1.25,0,0,0-1.33,1c-.27.84-.56,1.68-.88,2.5a22.9,22.9,0,0,1-3.88,6.87c-1.87,2.17-3.87,4.21-5.83,6.3C9.27,19,7.08,21.41,5.1,24A23.46,23.46,0,0,0,0,37.39,23.14,23.14,0,0,0,2.47,49.06,23.7,23.7,0,0,0,15.24,60.83a20.3,20.3,0,0,0,4.65,1.34,32.55,32.55,0,0,0,4.19.17,33,33,0,0,0,3.59-.1,20.4,20.4,0,0,0,4-1,24.08,24.08,0,0,0,16-19.33A23.06,23.06,0,0,0,46.84,31.35Zm-7,19.7a19.57,19.57,0,0,1-12.15,7.44A19.62,19.62,0,0,1,10.86,54,20,20,0,0,1,4,41.92a12.6,12.6,0,0,1-.18-1.83A24.46,24.46,0,0,1,4,35.48a19.72,19.72,0,0,1,4.38-9.77c2.72-3.16,5.54-6.21,8.42-9.23.88-.91,1.74-1.85,2.58-2.8a22.13,22.13,0,0,0,2.91-4.79c.47-1,.89-1.94,1.34-2.9.07-.16.14-.31.26-.53.15.28.27.5.38.73.75,1.51,1.47,3,2.3,4.51a18.63,18.63,0,0,0,2.81,3.79c2.23,2.34,4.52,4.62,6.7,7a59.19,59.19,0,0,1,4.51,5.38A19.08,19.08,0,0,1,44,35.93,20.08,20.08,0,0,1,39.89,51.05Z" style="fill: #fb00d0"/>
        <path d="M30.34,52.49a1.79,1.79,0,0,1-1.07,1.76,12.56,12.56,0,0,1-2.48.64,15.52,15.52,0,0,1-2.72.22A16.67,16.67,0,0,1,8.13,43.54a16.24,16.24,0,0,1-.61-6,1.71,1.71,0,0,1,1.9-1.36A1.78,1.78,0,0,1,11,37.92c.07.75.1,1.5.19,2.25a12.23,12.23,0,0,0,3.71,7.56,12.68,12.68,0,0,0,7.21,3.58,14,14,0,0,0,5.54-.38,2.52,2.52,0,0,1,1.56,0A1.66,1.66,0,0,1,30.34,52.49Z" style="fill: #fb00d0"/>
        <path d="M30.34,52.49a1.79,1.79,0,0,1-1.07,1.76,12.56,12.56,0,0,1-2.48.64,15.52,15.52,0,0,1-2.72.22A16.67,16.67,0,0,1,8.13,43.54a16.24,16.24,0,0,1-.61-6,1.71,1.71,0,0,1,1.9-1.36A1.78,1.78,0,0,1,11,37.92c.07.75.1,1.5.19,2.25a12.23,12.23,0,0,0,3.71,7.56,12.68,12.68,0,0,0,7.21,3.58,14,14,0,0,0,5.54-.38,2.52,2.52,0,0,1,1.56,0A1.66,1.66,0,0,1,30.34,52.49Z" style="fill: #fb00d0"/>
      </g>
    </g>
  </g>
</svg>
